<svg xmlns="http://www.w3.org/2000/svg" viewBox="0 0 24 24" width="24" height="24">
    <path fill="currentColor" d="M21.08 2.92C18.62.47 14.75.45 12.28 2.92L2.92 12.28C.47 14.74.45 18.61 2.92 21.08a15.84 15.84 0 0 0 4.35 2.31l.4.15a1.49 1.49 0 0 0 1.7-.37l3.2-3.2a1.5 1.5 0 0 1 1.73-.36l4.51 1.58a15.93 15.93 0 0 0 5.55-5.56l1.58-4.51a1.5 1.5 0 0 1-.37-1.7l.15-.39a15.82 15.82 0 0 0-2.31-4.34zM18 10.5a1.5 1.5 0 1 1-1.5-1.5 1.5 1.5 0 0 1 1.5 1.5zm-3.75 7.5a1.5 1.5 0 1 1-1.5-1.5 1.5 1.5 0 0 1 1.5 1.5zm3-3a.75.75 0 0 1-1.5 0V14.5a.75.75 0 0 1 1.5 0v.75zm-4.5-1.5a.75.75 0 0 1-.75.75h-.75a.75.75 0 0 1 0-1.5h.75a.75.75 0 0 1 .75.75zm3-7.5A1.5 1.5 0 0 1 18 6.75 1.5 1.5 0 0 1 16.5 8.25zm-9.69 9.69l.26-.75a.75.75 0 0 1 1.44.42l-.26.75a.75.75 0 0 1-1.44-.42zm-.52-2.14a.75.75 0 0 1 .41 1.44l-.75-.26a.75.75 0 0 1 .34-1.18.748.748 0 0 1 .41.75zm1.88-3.17h-.75a.75.75 0 0 1 0-1.5h.75a.75.75 0 0 1 0 1.5zM12 10.5c-.69 0-1.25.56-1.25 1.25S11.31 13 12 13s1.25-.56 1.25-1.25S12.69 10.5 12 10.5zm-3.75 7.5a1.5 1.5 0 1 1-1.5-1.5 1.5 1.5 0 0 1 1.5 1.5z"/>
</svg>
